<?xml version="1.0" standalone="no"?><svg xmlns:xlink="http://www.w3.org/1999/xlink" xmlns="http://www.w3.org/2000/svg" viewBox="0 0 1000 636.3761597019662" preserveAspectRatio="xMaxYMax slice"><g transform="scale(1.4973556698869794)"><rect x="0" y="0" width="667.8571428571429" height="425" fill="#d3d3d3"/><rect x="60.714285714285715" y="0" width="60.714285714285715" height="60.714285714285715" fill="#d3d3d3"/><rect x="91.07" y="0" width="30.36" height="30.36" fill="#da7b9c"/><circle cx="75.89" cy="45.54" r="15.18" fill="#d6c7cb"/><rect x="91.07" y="30.36" width="30.36" height="30.36" fill="#dd5a88"/><rect x="121.42857142857143" y="0" width="60.714285714285715" height="60.714285714285715" fill="#d3d3d3"/><path d="M 121.43 30.36 A 30.36 30.36 0 0 0 151.79000000000002 60.72 L 151.79000000000002 53.129999999999995 A 22.77 22.77 0 0 1 129.02 30.36" fill="#ddafba"/><rect x="485.7142857142857" y="0" width="60.714285714285715" height="60.714285714285715" fill="#d3d3d3"/><rect x="607.1428571428571" y="0" width="60.714285714285715" height="60.714285714285715" fill="#d3d3d3"/><polygon points="637.5,0 637.5,30.36 607.14,30.36" fill="#ea829a"/><polygon points="637.5,0 667.86,30.36 637.5,30.36" fill="#d9bcc3"/><polygon points="637.5,30.36 667.86,30.36 667.86,60.72" fill="#df3873"/><rect x="60.714285714285715" y="60.714285714285715" width="60.714285714285715" height="60.714285714285715" fill="#d3d3d3"/><path d="M 60.71 91.07 A 30.36 30.36 0 0 0 91.07 121.42999999999999 L 91.07 91.07" fill="#f94c75"/><rect x="121.42857142857143" y="60.714285714285715" width="60.714285714285715" height="60.714285714285715" fill="#d3d3d3"/><path d="M 121.43 91.07 A 30.36 30.36 0 0 0 151.79000000000002 121.42999999999999 L 151.79000000000002 113.83999999999999 A 22.77 22.77 0 0 1 129.02 91.07" fill="#e03370"/><rect x="182.14285714285714" y="60.714285714285715" width="60.714285714285715" height="60.714285714285715" fill="#d3d3d3"/><path d="M 212.5 91.07 A 30.36 30.36 0 0 1  242.86 60.71 L 242.86 91.07" fill="#dfa8b5"/><rect x="485.7142857142857" y="60.714285714285715" width="60.714285714285715" height="60.714285714285715" fill="#d3d3d3"/><path d="M 485.71 91.07 A 30.36 30.36 0 0 0 516.0699999999999 60.71 L 485.71 60.71" fill="#e68ea3"/><path d="M 516.07 60.71 A 30.36 30.36 0 0 0 546.4300000000001 91.07 L 546.4300000000001 60.71" fill="#db6c93"/><path d="M 485.71 91.07 A 30.36 30.36 0 0 1 516.0699999999999 121.42999999999999 L 485.71 121.42999999999999" fill="#ef708e"/><path d="M 516.07 121.42999999999999 A 30.36 30.36 0 0 1  546.4300000000001 91.07 L 546.4300000000001 121.42999999999999" fill="#de4f81"/><rect x="60.714285714285715" y="121.42857142857143" width="60.714285714285715" height="60.714285714285715" fill="#d3d3d3"/><rect x="425" y="121.42857142857143" width="60.714285714285715" height="60.714285714285715" fill="#d3d3d3"/><path d="M 425 151.79 A 30.36 30.36 0 0 0 455.36 182.14999999999998 L 455.36 151.79" fill="#d988a4"/><rect x="0" y="182.14285714285714" width="60.714285714285715" height="60.714285714285715" fill="#d3d3d3"/><path d="M 0 182.14 A 30.36 30.36 0 0 0 30.36 212.5 L 30.36 182.14" fill="#f5587e"/><path d="M 30.36 212.5 A 30.36 30.36 0 0 1 60.72 242.86 L 30.36 242.86" fill="#dbb5be"/><rect x="364.2857142857143" y="182.14285714285714" width="60.714285714285715" height="60.714285714285715" fill="#d3d3d3"/><rect x="425" y="182.14285714285714" width="60.714285714285715" height="60.714285714285715" fill="#d3d3d3"/><path d="M 425 212.5 A 30.36 30.36 0 0 1 455.36 182.14 L 455.36 189.73 A 22.77 22.77 0 0 0 432.59 212.5" fill="#f94973"/><path d="M 455.36 182.14 A 30.36 30.36 0 0 1 485.72 212.5 L 478.13 212.5 A 22.77 22.77 0 0 0 455.36 189.73" fill="#eb7c97"/><rect x="485.7142857142857" y="182.14285714285714" width="60.714285714285715" height="60.714285714285715" fill="#d3d3d3"/><polygon points="516.07,182.14 546.4300000000001,212.5 516.07,212.5" fill="#df4078"/><rect x="546.4285714285714" y="182.14285714285714" width="60.714285714285715" height="60.714285714285715" fill="#d3d3d3"/><polygon points="576.79,182.14 576.79,212.5 546.43,212.5" fill="#d6a9b9"/><polygon points="576.79,182.14 607.15,212.5 576.79,212.5" fill="#d5b6c1"/><polygon points="546.43,212.5 576.79,212.5 546.43,242.86" fill="#f84f77"/><rect x="0" y="242.85714285714286" width="60.714285714285715" height="60.714285714285715" fill="#d3d3d3"/><path d="M 30.36 273.21 A 30.36 30.36 0 0 0 60.72 303.57 L 60.72 273.21" fill="#d986a3"/><rect x="182.14285714285714" y="242.85714285714286" width="60.714285714285715" height="60.714285714285715" fill="#d3d3d3"/><path d="M 212.5 273.22 A 30.36 30.36 0 0 0 242.86 242.86 L 212.5 242.86" fill="#f06a8a"/><rect x="425" y="242.85714285714286" width="60.714285714285715" height="60.714285714285715" fill="#d3d3d3"/><path d="M 425 273.21 A 30.36 30.36 0 0 0 455.36 303.57 L 455.36 295.97999999999996 A 22.77 22.77 0 0 1 432.59 273.21" fill="#e29dae"/><path d="M 455.36 303.57 A 30.36 30.36 0 0 0 485.72 273.21 L 478.13 273.21 A 22.77 22.77 0 0 1 455.36 295.97999999999996" fill="#e29eae"/><rect x="485.7142857142857" y="242.85714285714286" width="60.714285714285715" height="60.714285714285715" fill="#d3d3d3"/><polygon points="516.07,242.86 546.4300000000001,242.86 516.07,273.22" fill="#d79cb1"/><rect x="546.4285714285714" y="242.85714285714286" width="60.714285714285715" height="60.714285714285715" fill="#d3d3d3"/><path d="M 576.79 273.22 A 30.36 30.36 0 0 1  607.15 242.86 L 607.15 273.22" fill="#e9859d"/><rect x="607.1428571428571" y="242.85714285714286" width="60.714285714285715" height="60.714285714285715" fill="#d3d3d3"/><circle cx="622.3199999999999" cy="258.04" r="15.18" fill="#e02c6c"/><rect x="637.5" y="242.86" width="30.36" height="30.36" fill="#e2195f"/><circle cx="622.3199999999999" cy="288.39" r="15.18" fill="#db6a92"/><rect x="637.5" y="273.21" width="30.36" height="30.36" fill="#d98ca7"/><rect x="121.42857142857143" y="303.57142857142856" width="60.714285714285715" height="60.714285714285715" fill="#d3d3d3"/><polygon points="151.79000000000002,303.57 151.79000000000002,333.93 121.43,333.93" fill="#d79bb0"/><polygon points="151.79,333.93 182.14999999999998,364.29 151.79,364.29" fill="#e399aa"/><rect x="303.57142857142856" y="303.57142857142856" width="60.714285714285715" height="60.714285714285715" fill="#d3d3d3"/><circle cx="318.75" cy="349.11" r="15.18" fill="#dc608c"/><rect x="333.93" y="333.93" width="30.36" height="30.36" fill="#de467c"/><rect x="425" y="303.57142857142856" width="60.714285714285715" height="60.714285714285715" fill="#d3d3d3"/><path d="M 425 333.93 A 30.36 30.36 0 0 0 455.36 303.57 L 425 303.57" fill="#d988a5"/><path d="M 425 333.93 A 30.36 30.36 0 0 1 455.36 364.29 L 425 364.29" fill="#f75279"/><path d="M 455.36 364.29 A 30.36 30.36 0 0 1  485.72 333.93 L 485.72 364.29" fill="#d6cacc"/><rect x="485.7142857142857" y="303.57142857142856" width="60.714285714285715" height="60.714285714285715" fill="#d3d3d3"/><polygon points="516.0699999999999,303.57 516.0699999999999,333.93 485.71,333.93" fill="#d5ccce"/><polygon points="516.07,303.57 546.4300000000001,303.57 516.07,333.93" fill="#db7297"/><polygon points="485.71,333.93 516.0699999999999,333.93 516.0699999999999,364.29" fill="#df3873"/><polygon points="516.07,333.93 546.4300000000001,364.29 516.07,364.29" fill="#d5b8c3"/><rect x="60.714285714285715" y="364.2857142857143" width="60.714285714285715" height="60.714285714285715" fill="#d3d3d3"/><rect x="91.07" y="364.29" width="30.36" height="30.36" fill="#f55a7f"/><circle cx="75.89" cy="409.82" r="15.18" fill="#dbb6be"/><rect x="425" y="364.2857142857143" width="60.714285714285715" height="60.714285714285715" fill="#d3d3d3"/><circle cx="440.18" cy="379.47" r="15.18" fill="#dc5e8b"/><rect x="455.36" y="394.64" width="30.36" height="30.36" fill="#e02e6d"/><rect x="607.1428571428571" y="364.2857142857143" width="60.714285714285715" height="60.714285714285715" fill="#d3d3d3"/><polygon points="637.5,364.29 637.5,394.65000000000003 607.14,394.65000000000003" fill="#dd5c89"/><polygon points="637.5,364.29 667.86,394.65000000000003 637.5,394.65000000000003" fill="#e9859d"/><polygon points="637.5,394.64 667.86,394.64 667.86,425" fill="#dd5283"/></g></svg>