<?xml version="1.0" standalone="no"?><svg xmlns:xlink="http://www.w3.org/1999/xlink" xmlns="http://www.w3.org/2000/svg" viewBox="0 0 1000 545.4610487159312" preserveAspectRatio="xMaxYMax slice"><g transform="scale(1.1177480506473998)"><rect x="0" y="0" width="894.6666666666666" height="488" fill="#3b3b3b"/><rect x="0" y="0" width="81.33333333333333" height="81.33333333333333" fill="#3b3b3b"/><g transform="translate(0,0) scale(2.0335) rotate(0)"><path d="M10 5L5 0L0 5L5 10L0 15L5 20L10 15L15 20L20 15L15 10L20 5L15 0L10 5Z" fill="#202020"/></g><g transform="translate(40.67,0) scale(2.0335) rotate(0)"><path d="M10 5L5 0L0 5L5 10L0 15L5 20L10 15L15 20L20 15L15 10L20 5L15 0L10 5Z" fill="#000000"/></g><g transform="translate(0,40.67) scale(2.0335) rotate(0)"><path d="M10 5L5 0L0 5L5 10L0 15L5 20L10 15L15 20L20 15L15 10L20 5L15 0L10 5Z" fill="#383838"/></g><g transform="translate(40.67,40.67) scale(2.0335) rotate(0)"><path d="M10 5L5 0L0 5L5 10L0 15L5 20L10 15L15 20L20 15L15 10L20 5L15 0L10 5Z" fill="#343434"/></g><rect x="81.33333333333333" y="0" width="81.33333333333333" height="81.33333333333333" fill="#3b3b3b"/><g transform="translate(81.33,0) scale(2.0335) rotate(0)"><path d="M10 5L5 0L0 5L5 10L0 15L5 20L10 15L15 20L20 15L15 10L20 5L15 0L10 5Z" fill="#0e0e0e"/></g><g transform="translate(122,0) scale(2.0335) rotate(0)"><path d="M10 5L5 0L0 5L5 10L0 15L5 20L10 15L15 20L20 15L15 10L20 5L15 0L10 5Z" fill="#343434"/></g><g transform="translate(81.33,40.67) scale(2.0335) rotate(0)"><path d="M10 5L5 0L0 5L5 10L0 15L5 20L10 15L15 20L20 15L15 10L20 5L15 0L10 5Z" fill="#0a0a0a"/></g><g transform="translate(122,40.67) scale(2.0335) rotate(0)"><path d="M10 5L5 0L0 5L5 10L0 15L5 20L10 15L15 20L20 15L15 10L20 5L15 0L10 5Z" fill="#2d2d2d"/></g><rect x="162.66666666666666" y="0" width="81.33333333333333" height="81.33333333333333" fill="#3b3b3b"/><g transform="translate(162.67,0) scale(2.0335) rotate(0)"><path d="M10 5L5 0L0 5L5 10L0 15L5 20L10 15L15 20L20 15L15 10L20 5L15 0L10 5Z" fill="#303030"/></g><g transform="translate(203.33,0) scale(2.0335) rotate(0)"><path d="M10 5L5 0L0 5L5 10L0 15L5 20L10 15L15 20L20 15L15 10L20 5L15 0L10 5Z" fill="#1e1e1e"/></g><g transform="translate(162.67,40.67) scale(2.0335) rotate(0)"><path d="M10 5L5 0L0 5L5 10L0 15L5 20L10 15L15 20L20 15L15 10L20 5L15 0L10 5Z" fill="#282828"/></g><g transform="translate(203.33,40.67) scale(2.0335) rotate(0)"><path d="M10 5L5 0L0 5L5 10L0 15L5 20L10 15L15 20L20 15L15 10L20 5L15 0L10 5Z" fill="#272727"/></g><rect x="244" y="0" width="81.33333333333333" height="81.33333333333333" fill="#3b3b3b"/><g transform="translate(244,0) scale(2.0335) rotate(0)"><path d="M10 5L5 0L0 5L5 10L0 15L5 20L10 15L15 20L20 15L15 10L20 5L15 0L10 5Z" fill="#191919"/></g><g transform="translate(284.67,0) scale(2.0335) rotate(0)"><path d="M10 5L5 0L0 5L5 10L0 15L5 20L10 15L15 20L20 15L15 10L20 5L15 0L10 5Z" fill="#060606"/></g><g transform="translate(244,40.67) scale(2.0335) rotate(0)"><path d="M10 5L5 0L0 5L5 10L0 15L5 20L10 15L15 20L20 15L15 10L20 5L15 0L10 5Z" fill="#141414"/></g><g transform="translate(284.67,40.67) scale(2.0335) rotate(0)"><path d="M10 5L5 0L0 5L5 10L0 15L5 20L10 15L15 20L20 15L15 10L20 5L15 0L10 5Z" fill="#010101"/></g><rect x="325.3333333333333" y="0" width="81.33333333333333" height="81.33333333333333" fill="#3b3b3b"/><g transform="translate(325.33,0) scale(2.0335) rotate(0)"><path d="M10 5L5 0L0 5L5 10L0 15L5 20L10 15L15 20L20 15L15 10L20 5L15 0L10 5Z" fill="#1e1e1e"/></g><g transform="translate(366,0) scale(2.0335) rotate(0)"><path d="M10 5L5 0L0 5L5 10L0 15L5 20L10 15L15 20L20 15L15 10L20 5L15 0L10 5Z" fill="#060606"/></g><g transform="translate(325.33,40.67) scale(2.0335) rotate(0)"><path d="M10 5L5 0L0 5L5 10L0 15L5 20L10 15L15 20L20 15L15 10L20 5L15 0L10 5Z" fill="#2d2d2d"/></g><g transform="translate(366,40.67) scale(2.0335) rotate(0)"><path d="M10 5L5 0L0 5L5 10L0 15L5 20L10 15L15 20L20 15L15 10L20 5L15 0L10 5Z" fill="#333333"/></g><rect x="406.66666666666663" y="0" width="81.33333333333333" height="81.33333333333333" fill="#3b3b3b"/><g transform="translate(406.67,0) scale(2.0335) rotate(0)"><path d="M10 5L5 0L0 5L5 10L0 15L5 20L10 15L15 20L20 15L15 10L20 5L15 0L10 5Z" fill="#0d0d0d"/></g><g transform="translate(447.33,0) scale(2.0335) rotate(0)"><path d="M10 5L5 0L0 5L5 10L0 15L5 20L10 15L15 20L20 15L15 10L20 5L15 0L10 5Z" fill="#050505"/></g><g transform="translate(406.67,40.67) scale(2.0335) rotate(0)"><path d="M10 5L5 0L0 5L5 10L0 15L5 20L10 15L15 20L20 15L15 10L20 5L15 0L10 5Z" fill="#161616"/></g><g transform="translate(447.33,40.67) scale(2.0335) rotate(0)"><path d="M10 5L5 0L0 5L5 10L0 15L5 20L10 15L15 20L20 15L15 10L20 5L15 0L10 5Z" fill="#111111"/></g><rect x="488" y="0" width="81.33333333333333" height="81.33333333333333" fill="#3b3b3b"/><g transform="translate(488,0) scale(2.0335) rotate(0)"><path d="M10 5L5 0L0 5L5 10L0 15L5 20L10 15L15 20L20 15L15 10L20 5L15 0L10 5Z" fill="#232323"/></g><g transform="translate(528.67,0) scale(2.0335) rotate(0)"><path d="M10 5L5 0L0 5L5 10L0 15L5 20L10 15L15 20L20 15L15 10L20 5L15 0L10 5Z" fill="#232323"/></g><g transform="translate(488,40.67) scale(2.0335) rotate(0)"><path d="M10 5L5 0L0 5L5 10L0 15L5 20L10 15L15 20L20 15L15 10L20 5L15 0L10 5Z" fill="#272727"/></g><g transform="translate(528.67,40.67) scale(2.0335) rotate(0)"><path d="M10 5L5 0L0 5L5 10L0 15L5 20L10 15L15 20L20 15L15 10L20 5L15 0L10 5Z" fill="#1d1d1d"/></g><rect x="569.3333333333333" y="0" width="81.33333333333333" height="81.33333333333333" fill="#3b3b3b"/><g transform="translate(569.33,0) scale(2.0335) rotate(0)"><path d="M10 5L5 0L0 5L5 10L0 15L5 20L10 15L15 20L20 15L15 10L20 5L15 0L10 5Z" fill="#222222"/></g><g transform="translate(610,0) scale(2.0335) rotate(0)"><path d="M10 5L5 0L0 5L5 10L0 15L5 20L10 15L15 20L20 15L15 10L20 5L15 0L10 5Z" fill="#292929"/></g><g transform="translate(569.33,40.67) scale(2.0335) rotate(0)"><path d="M10 5L5 0L0 5L5 10L0 15L5 20L10 15L15 20L20 15L15 10L20 5L15 0L10 5Z" fill="#0e0e0e"/></g><g transform="translate(610,40.67) scale(2.0335) rotate(0)"><path d="M10 5L5 0L0 5L5 10L0 15L5 20L10 15L15 20L20 15L15 10L20 5L15 0L10 5Z" fill="#2f2f2f"/></g><rect x="650.6666666666666" y="0" width="81.33333333333333" height="81.33333333333333" fill="#3b3b3b"/><g transform="translate(650.67,0) scale(2.0335) rotate(0)"><path d="M10 5L5 0L0 5L5 10L0 15L5 20L10 15L15 20L20 15L15 10L20 5L15 0L10 5Z" fill="#040404"/></g><g transform="translate(691.33,0) scale(2.0335) rotate(0)"><path d="M10 5L5 0L0 5L5 10L0 15L5 20L10 15L15 20L20 15L15 10L20 5L15 0L10 5Z" fill="#1a1a1a"/></g><g transform="translate(650.67,40.67) scale(2.0335) rotate(0)"><path d="M10 5L5 0L0 5L5 10L0 15L5 20L10 15L15 20L20 15L15 10L20 5L15 0L10 5Z" fill="#030303"/></g><g transform="translate(691.33,40.67) scale(2.0335) rotate(0)"><path d="M10 5L5 0L0 5L5 10L0 15L5 20L10 15L15 20L20 15L15 10L20 5L15 0L10 5Z" fill="#313131"/></g><rect x="732" y="0" width="81.33333333333333" height="81.33333333333333" fill="#3b3b3b"/><g transform="translate(732,0) scale(2.0335) rotate(0)"><path d="M10 5L5 0L0 5L5 10L0 15L5 20L10 15L15 20L20 15L15 10L20 5L15 0L10 5Z" fill="#323232"/></g><g transform="translate(772.67,0) scale(2.0335) rotate(0)"><path d="M10 5L5 0L0 5L5 10L0 15L5 20L10 15L15 20L20 15L15 10L20 5L15 0L10 5Z" fill="#181818"/></g><g transform="translate(732,40.67) scale(2.0335) rotate(0)"><path d="M10 5L5 0L0 5L5 10L0 15L5 20L10 15L15 20L20 15L15 10L20 5L15 0L10 5Z" fill="#191919"/></g><g transform="translate(772.67,40.67) scale(2.0335) rotate(0)"><path d="M10 5L5 0L0 5L5 10L0 15L5 20L10 15L15 20L20 15L15 10L20 5L15 0L10 5Z" fill="#393939"/></g><rect x="813.3333333333333" y="0" width="81.33333333333333" height="81.33333333333333" fill="#3b3b3b"/><g transform="translate(813.33,0) scale(2.0335) rotate(0)"><path d="M10 5L5 0L0 5L5 10L0 15L5 20L10 15L15 20L20 15L15 10L20 5L15 0L10 5Z" fill="#272727"/></g><g transform="translate(854,0) scale(2.0335) rotate(0)"><path d="M10 5L5 0L0 5L5 10L0 15L5 20L10 15L15 20L20 15L15 10L20 5L15 0L10 5Z" fill="#1f1f1f"/></g><g transform="translate(813.33,40.67) scale(2.0335) rotate(0)"><path d="M10 5L5 0L0 5L5 10L0 15L5 20L10 15L15 20L20 15L15 10L20 5L15 0L10 5Z" fill="#202020"/></g><g transform="translate(854,40.67) scale(2.0335) rotate(0)"><path d="M10 5L5 0L0 5L5 10L0 15L5 20L10 15L15 20L20 15L15 10L20 5L15 0L10 5Z" fill="#252525"/></g><rect x="0" y="81.33333333333333" width="81.33333333333333" height="81.33333333333333" fill="#3b3b3b"/><g transform="translate(0,81.33) scale(2.0335) rotate(0)"><path d="M10 5L5 0L0 5L5 10L0 15L5 20L10 15L15 20L20 15L15 10L20 5L15 0L10 5Z" fill="#0b0b0b"/></g><g transform="translate(40.67,81.33) scale(2.0335) rotate(0)"><path d="M10 5L5 0L0 5L5 10L0 15L5 20L10 15L15 20L20 15L15 10L20 5L15 0L10 5Z" fill="#242424"/></g><g transform="translate(0,122) scale(2.0335) rotate(0)"><path d="M10 5L5 0L0 5L5 10L0 15L5 20L10 15L15 20L20 15L15 10L20 5L15 0L10 5Z" fill="#303030"/></g><g transform="translate(40.67,122) scale(2.0335) rotate(0)"><path d="M10 5L5 0L0 5L5 10L0 15L5 20L10 15L15 20L20 15L15 10L20 5L15 0L10 5Z" fill="#202020"/></g><rect x="81.33333333333333" y="81.33333333333333" width="81.33333333333333" height="81.33333333333333" fill="#3b3b3b"/><g transform="translate(81.33,81.33) scale(2.0335) rotate(0)"><path d="M10 5L5 0L0 5L5 10L0 15L5 20L10 15L15 20L20 15L15 10L20 5L15 0L10 5Z" fill="#040404"/></g><g transform="translate(122,81.33) scale(2.0335) rotate(0)"><path d="M10 5L5 0L0 5L5 10L0 15L5 20L10 15L15 20L20 15L15 10L20 5L15 0L10 5Z" fill="#353535"/></g><g transform="translate(81.33,122) scale(2.0335) rotate(0)"><path d="M10 5L5 0L0 5L5 10L0 15L5 20L10 15L15 20L20 15L15 10L20 5L15 0L10 5Z" fill="#040404"/></g><g transform="translate(122,122) scale(2.0335) rotate(0)"><path d="M10 5L5 0L0 5L5 10L0 15L5 20L10 15L15 20L20 15L15 10L20 5L15 0L10 5Z" fill="#010101"/></g><rect x="162.66666666666666" y="81.33333333333333" width="81.33333333333333" height="81.33333333333333" fill="#3b3b3b"/><g transform="translate(162.67,81.33) scale(2.0335) rotate(0)"><path d="M10 5L5 0L0 5L5 10L0 15L5 20L10 15L15 20L20 15L15 10L20 5L15 0L10 5Z" fill="#1b1b1b"/></g><g transform="translate(203.33,81.33) scale(2.0335) rotate(0)"><path d="M10 5L5 0L0 5L5 10L0 15L5 20L10 15L15 20L20 15L15 10L20 5L15 0L10 5Z" fill="#0d0d0d"/></g><g transform="translate(162.67,122) scale(2.0335) rotate(0)"><path d="M10 5L5 0L0 5L5 10L0 15L5 20L10 15L15 20L20 15L15 10L20 5L15 0L10 5Z" fill="#2b2b2b"/></g><g transform="translate(203.33,122) scale(2.0335) rotate(0)"><path d="M10 5L5 0L0 5L5 10L0 15L5 20L10 15L15 20L20 15L15 10L20 5L15 0L10 5Z" fill="#2b2b2b"/></g><rect x="244" y="81.33333333333333" width="81.33333333333333" height="81.33333333333333" fill="#3b3b3b"/><g transform="translate(244,81.33) scale(2.0335) rotate(0)"><path d="M10 5L5 0L0 5L5 10L0 15L5 20L10 15L15 20L20 15L15 10L20 5L15 0L10 5Z" fill="#161616"/></g><g transform="translate(284.67,81.33) scale(2.0335) rotate(0)"><path d="M10 5L5 0L0 5L5 10L0 15L5 20L10 15L15 20L20 15L15 10L20 5L15 0L10 5Z" fill="#313131"/></g><g transform="translate(244,122) scale(2.0335) rotate(0)"><path d="M10 5L5 0L0 5L5 10L0 15L5 20L10 15L15 20L20 15L15 10L20 5L15 0L10 5Z" fill="#0d0d0d"/></g><g transform="translate(284.67,122) scale(2.0335) rotate(0)"><path d="M10 5L5 0L0 5L5 10L0 15L5 20L10 15L15 20L20 15L15 10L20 5L15 0L10 5Z" fill="#333333"/></g><rect x="325.3333333333333" y="81.33333333333333" width="81.33333333333333" height="81.33333333333333" fill="#3b3b3b"/><g transform="translate(325.33,81.33) scale(2.0335) rotate(0)"><path d="M10 5L5 0L0 5L5 10L0 15L5 20L10 15L15 20L20 15L15 10L20 5L15 0L10 5Z" fill="#3a3a3a"/></g><g transform="translate(366,81.33) scale(2.0335) rotate(0)"><path d="M10 5L5 0L0 5L5 10L0 15L5 20L10 15L15 20L20 15L15 10L20 5L15 0L10 5Z" fill="#121212"/></g><g transform="translate(325.33,122) scale(2.0335) rotate(0)"><path d="M10 5L5 0L0 5L5 10L0 15L5 20L10 15L15 20L20 15L15 10L20 5L15 0L10 5Z" fill="#030303"/></g><g transform="translate(366,122) scale(2.0335) rotate(0)"><path d="M10 5L5 0L0 5L5 10L0 15L5 20L10 15L15 20L20 15L15 10L20 5L15 0L10 5Z" fill="#040404"/></g><rect x="406.66666666666663" y="81.33333333333333" width="81.33333333333333" height="81.33333333333333" fill="#3b3b3b"/><g transform="translate(406.67,81.33) scale(2.0335) rotate(0)"><path d="M10 5L5 0L0 5L5 10L0 15L5 20L10 15L15 20L20 15L15 10L20 5L15 0L10 5Z" fill="#101010"/></g><g transform="translate(447.33,81.33) scale(2.0335) rotate(0)"><path d="M10 5L5 0L0 5L5 10L0 15L5 20L10 15L15 20L20 15L15 10L20 5L15 0L10 5Z" fill="#202020"/></g><g transform="translate(406.67,122) scale(2.0335) rotate(0)"><path d="M10 5L5 0L0 5L5 10L0 15L5 20L10 15L15 20L20 15L15 10L20 5L15 0L10 5Z" fill="#1d1d1d"/></g><g transform="translate(447.33,122) scale(2.0335) rotate(0)"><path d="M10 5L5 0L0 5L5 10L0 15L5 20L10 15L15 20L20 15L15 10L20 5L15 0L10 5Z" fill="#181818"/></g><rect x="488" y="81.33333333333333" width="81.33333333333333" height="81.33333333333333" fill="#3b3b3b"/><g transform="translate(488,81.33) scale(2.0335) rotate(0)"><path d="M10 5L5 0L0 5L5 10L0 15L5 20L10 15L15 20L20 15L15 10L20 5L15 0L10 5Z" fill="#000000"/></g><g transform="translate(528.67,81.33) scale(2.0335) rotate(0)"><path d="M10 5L5 0L0 5L5 10L0 15L5 20L10 15L15 20L20 15L15 10L20 5L15 0L10 5Z" fill="#0b0b0b"/></g><g transform="translate(488,122) scale(2.0335) rotate(0)"><path d="M10 5L5 0L0 5L5 10L0 15L5 20L10 15L15 20L20 15L15 10L20 5L15 0L10 5Z" fill="#272727"/></g><g transform="translate(528.67,122) scale(2.0335) rotate(0)"><path d="M10 5L5 0L0 5L5 10L0 15L5 20L10 15L15 20L20 15L15 10L20 5L15 0L10 5Z" fill="#0b0b0b"/></g><rect x="569.3333333333333" y="81.33333333333333" width="81.33333333333333" height="81.33333333333333" fill="#3b3b3b"/><g transform="translate(569.33,81.33) scale(2.0335) rotate(0)"><path d="M10 5L5 0L0 5L5 10L0 15L5 20L10 15L15 20L20 15L15 10L20 5L15 0L10 5Z" fill="#080808"/></g><g transform="translate(610,81.33) scale(2.0335) rotate(0)"><path d="M10 5L5 0L0 5L5 10L0 15L5 20L10 15L15 20L20 15L15 10L20 5L15 0L10 5Z" fill="#010101"/></g><g transform="translate(569.33,122) scale(2.0335) rotate(0)"><path d="M10 5L5 0L0 5L5 10L0 15L5 20L10 15L15 20L20 15L15 10L20 5L15 0L10 5Z" fill="#0b0b0b"/></g><g transform="translate(610,122) scale(2.0335) rotate(0)"><path d="M10 5L5 0L0 5L5 10L0 15L5 20L10 15L15 20L20 15L15 10L20 5L15 0L10 5Z" fill="#010101"/></g><rect x="650.6666666666666" y="81.33333333333333" width="81.33333333333333" height="81.33333333333333" fill="#3b3b3b"/><g transform="translate(650.67,81.33) scale(2.0335) rotate(0)"><path d="M10 5L5 0L0 5L5 10L0 15L5 20L10 15L15 20L20 15L15 10L20 5L15 0L10 5Z" fill="#080808"/></g><g transform="translate(691.33,81.33) scale(2.0335) rotate(0)"><path d="M10 5L5 0L0 5L5 10L0 15L5 20L10 15L15 20L20 15L15 10L20 5L15 0L10 5Z" fill="#2b2b2b"/></g><g transform="translate(650.67,122) scale(2.0335) rotate(0)"><path d="M10 5L5 0L0 5L5 10L0 15L5 20L10 15L15 20L20 15L15 10L20 5L15 0L10 5Z" fill="#1d1d1d"/></g><g transform="translate(691.33,122) scale(2.0335) rotate(0)"><path d="M10 5L5 0L0 5L5 10L0 15L5 20L10 15L15 20L20 15L15 10L20 5L15 0L10 5Z" fill="#2e2e2e"/></g><rect x="732" y="81.33333333333333" width="81.33333333333333" height="81.33333333333333" fill="#3b3b3b"/><g transform="translate(732,81.33) scale(2.0335) rotate(0)"><path d="M10 5L5 0L0 5L5 10L0 15L5 20L10 15L15 20L20 15L15 10L20 5L15 0L10 5Z" fill="#050505"/></g><g transform="translate(772.67,81.33) scale(2.0335) rotate(0)"><path d="M10 5L5 0L0 5L5 10L0 15L5 20L10 15L15 20L20 15L15 10L20 5L15 0L10 5Z" fill="#060606"/></g><g transform="translate(732,122) scale(2.0335) rotate(0)"><path d="M10 5L5 0L0 5L5 10L0 15L5 20L10 15L15 20L20 15L15 10L20 5L15 0L10 5Z" fill="#393939"/></g><g transform="translate(772.67,122) scale(2.0335) rotate(0)"><path d="M10 5L5 0L0 5L5 10L0 15L5 20L10 15L15 20L20 15L15 10L20 5L15 0L10 5Z" fill="#383838"/></g><rect x="813.3333333333333" y="81.33333333333333" width="81.33333333333333" height="81.33333333333333" fill="#3b3b3b"/><g transform="translate(813.33,81.33) scale(2.0335) rotate(0)"><path d="M10 5L5 0L0 5L5 10L0 15L5 20L10 15L15 20L20 15L15 10L20 5L15 0L10 5Z" fill="#363636"/></g><g transform="translate(854,81.33) scale(2.0335) rotate(0)"><path d="M10 5L5 0L0 5L5 10L0 15L5 20L10 15L15 20L20 15L15 10L20 5L15 0L10 5Z" fill="#3a3a3a"/></g><g transform="translate(813.33,122) scale(2.0335) rotate(0)"><path d="M10 5L5 0L0 5L5 10L0 15L5 20L10 15L15 20L20 15L15 10L20 5L15 0L10 5Z" fill="#0c0c0c"/></g><g transform="translate(854,122) scale(2.0335) rotate(0)"><path d="M10 5L5 0L0 5L5 10L0 15L5 20L10 15L15 20L20 15L15 10L20 5L15 0L10 5Z" fill="#020202"/></g><rect x="0" y="162.66666666666666" width="81.33333333333333" height="81.33333333333333" fill="#3b3b3b"/><g transform="translate(0,162.67) scale(2.0335) rotate(0)"><path d="M10 5L5 0L0 5L5 10L0 15L5 20L10 15L15 20L20 15L15 10L20 5L15 0L10 5Z" fill="#1f1f1f"/></g><g transform="translate(40.67,162.67) scale(2.0335) rotate(0)"><path d="M10 5L5 0L0 5L5 10L0 15L5 20L10 15L15 20L20 15L15 10L20 5L15 0L10 5Z" fill="#1d1d1d"/></g><g transform="translate(0,203.33) scale(2.0335) rotate(0)"><path d="M10 5L5 0L0 5L5 10L0 15L5 20L10 15L15 20L20 15L15 10L20 5L15 0L10 5Z" fill="#080808"/></g><g transform="translate(40.67,203.33) scale(2.0335) rotate(0)"><path d="M10 5L5 0L0 5L5 10L0 15L5 20L10 15L15 20L20 15L15 10L20 5L15 0L10 5Z" fill="#232323"/></g><rect x="81.33333333333333" y="162.66666666666666" width="81.33333333333333" height="81.33333333333333" fill="#3b3b3b"/><g transform="translate(81.33,162.67) scale(2.0335) rotate(0)"><path d="M10 5L5 0L0 5L5 10L0 15L5 20L10 15L15 20L20 15L15 10L20 5L15 0L10 5Z" fill="#0d0d0d"/></g><g transform="translate(122,162.67) scale(2.0335) rotate(0)"><path d="M10 5L5 0L0 5L5 10L0 15L5 20L10 15L15 20L20 15L15 10L20 5L15 0L10 5Z" fill="#202020"/></g><g transform="translate(81.33,203.33) scale(2.0335) rotate(0)"><path d="M10 5L5 0L0 5L5 10L0 15L5 20L10 15L15 20L20 15L15 10L20 5L15 0L10 5Z" fill="#1a1a1a"/></g><g transform="translate(122,203.33) scale(2.0335) rotate(0)"><path d="M10 5L5 0L0 5L5 10L0 15L5 20L10 15L15 20L20 15L15 10L20 5L15 0L10 5Z" fill="#0a0a0a"/></g><rect x="162.66666666666666" y="162.66666666666666" width="81.33333333333333" height="81.33333333333333" fill="#3b3b3b"/><g transform="translate(162.67,162.67) scale(2.0335) rotate(0)"><path d="M10 5L5 0L0 5L5 10L0 15L5 20L10 15L15 20L20 15L15 10L20 5L15 0L10 5Z" fill="#010101"/></g><g transform="translate(203.33,162.67) scale(2.0335) rotate(0)"><path d="M10 5L5 0L0 5L5 10L0 15L5 20L10 15L15 20L20 15L15 10L20 5L15 0L10 5Z" fill="#0f0f0f"/></g><g transform="translate(162.67,203.33) scale(2.0335) rotate(0)"><path d="M10 5L5 0L0 5L5 10L0 15L5 20L10 15L15 20L20 15L15 10L20 5L15 0L10 5Z" fill="#2d2d2d"/></g><g transform="translate(203.33,203.33) scale(2.0335) rotate(0)"><path d="M10 5L5 0L0 5L5 10L0 15L5 20L10 15L15 20L20 15L15 10L20 5L15 0L10 5Z" fill="#323232"/></g><rect x="244" y="162.66666666666666" width="81.33333333333333" height="81.33333333333333" fill="#3b3b3b"/><g transform="translate(244,162.67) scale(2.0335) rotate(0)"><path d="M10 5L5 0L0 5L5 10L0 15L5 20L10 15L15 20L20 15L15 10L20 5L15 0L10 5Z" fill="#323232"/></g><g transform="translate(284.67,162.67) scale(2.0335) rotate(0)"><path d="M10 5L5 0L0 5L5 10L0 15L5 20L10 15L15 20L20 15L15 10L20 5L15 0L10 5Z" fill="#161616"/></g><g transform="translate(244,203.33) scale(2.0335) rotate(0)"><path d="M10 5L5 0L0 5L5 10L0 15L5 20L10 15L15 20L20 15L15 10L20 5L15 0L10 5Z" fill="#010101"/></g><g transform="translate(284.67,203.33) scale(2.0335) rotate(0)"><path d="M10 5L5 0L0 5L5 10L0 15L5 20L10 15L15 20L20 15L15 10L20 5L15 0L10 5Z" fill="#363636"/></g><rect x="325.3333333333333" y="162.66666666666666" width="81.33333333333333" height="81.33333333333333" fill="#3b3b3b"/><g transform="translate(325.33,162.67) scale(2.0335) rotate(0)"><path d="M10 5L5 0L0 5L5 10L0 15L5 20L10 15L15 20L20 15L15 10L20 5L15 0L10 5Z" fill="#242424"/></g><g transform="translate(366,162.67) scale(2.0335) rotate(0)"><path d="M10 5L5 0L0 5L5 10L0 15L5 20L10 15L15 20L20 15L15 10L20 5L15 0L10 5Z" fill="#333333"/></g><g transform="translate(325.33,203.33) scale(2.0335) rotate(0)"><path d="M10 5L5 0L0 5L5 10L0 15L5 20L10 15L15 20L20 15L15 10L20 5L15 0L10 5Z" fill="#090909"/></g><g transform="translate(366,203.33) scale(2.0335) rotate(0)"><path d="M10 5L5 0L0 5L5 10L0 15L5 20L10 15L15 20L20 15L15 10L20 5L15 0L10 5Z" fill="#1b1b1b"/></g><rect x="406.66666666666663" y="162.66666666666666" width="81.33333333333333" height="81.33333333333333" fill="#3b3b3b"/><g transform="translate(406.67,162.67) scale(2.0335) rotate(0)"><path d="M10 5L5 0L0 5L5 10L0 15L5 20L10 15L15 20L20 15L15 10L20 5L15 0L10 5Z" fill="#131313"/></g><g transform="translate(447.33,162.67) scale(2.0335) rotate(0)"><path d="M10 5L5 0L0 5L5 10L0 15L5 20L10 15L15 20L20 15L15 10L20 5L15 0L10 5Z" fill="#0f0f0f"/></g><g transform="translate(406.67,203.33) scale(2.0335) rotate(0)"><path d="M10 5L5 0L0 5L5 10L0 15L5 20L10 15L15 20L20 15L15 10L20 5L15 0L10 5Z" fill="#141414"/></g><g transform="translate(447.33,203.33) scale(2.0335) rotate(0)"><path d="M10 5L5 0L0 5L5 10L0 15L5 20L10 15L15 20L20 15L15 10L20 5L15 0L10 5Z" fill="#353535"/></g><rect x="488" y="162.66666666666666" width="81.33333333333333" height="81.33333333333333" fill="#3b3b3b"/><g transform="translate(488,162.67) scale(2.0335) rotate(0)"><path d="M10 5L5 0L0 5L5 10L0 15L5 20L10 15L15 20L20 15L15 10L20 5L15 0L10 5Z" fill="#191919"/></g><g transform="translate(528.67,162.67) scale(2.0335) rotate(0)"><path d="M10 5L5 0L0 5L5 10L0 15L5 20L10 15L15 20L20 15L15 10L20 5L15 0L10 5Z" fill="#1e1e1e"/></g><g transform="translate(488,203.33) scale(2.0335) rotate(0)"><path d="M10 5L5 0L0 5L5 10L0 15L5 20L10 15L15 20L20 15L15 10L20 5L15 0L10 5Z" fill="#333333"/></g><g transform="translate(528.67,203.33) scale(2.0335) rotate(0)"><path d="M10 5L5 0L0 5L5 10L0 15L5 20L10 15L15 20L20 15L15 10L20 5L15 0L10 5Z" fill="#010101"/></g><rect x="569.3333333333333" y="162.66666666666666" width="81.33333333333333" height="81.33333333333333" fill="#3b3b3b"/><g transform="translate(569.33,162.67) scale(2.0335) rotate(0)"><path d="M10 5L5 0L0 5L5 10L0 15L5 20L10 15L15 20L20 15L15 10L20 5L15 0L10 5Z" fill="#0a0a0a"/></g><g transform="translate(610,162.67) scale(2.0335) rotate(0)"><path d="M10 5L5 0L0 5L5 10L0 15L5 20L10 15L15 20L20 15L15 10L20 5L15 0L10 5Z" fill="#2f2f2f"/></g><g transform="translate(569.33,203.33) scale(2.0335) rotate(0)"><path d="M10 5L5 0L0 5L5 10L0 15L5 20L10 15L15 20L20 15L15 10L20 5L15 0L10 5Z" fill="#151515"/></g><g transform="translate(610,203.33) scale(2.0335) rotate(0)"><path d="M10 5L5 0L0 5L5 10L0 15L5 20L10 15L15 20L20 15L15 10L20 5L15 0L10 5Z" fill="#080808"/></g><rect x="650.6666666666666" y="162.66666666666666" width="81.33333333333333" height="81.33333333333333" fill="#3b3b3b"/><g transform="translate(650.67,162.67) scale(2.0335) rotate(0)"><path d="M10 5L5 0L0 5L5 10L0 15L5 20L10 15L15 20L20 15L15 10L20 5L15 0L10 5Z" fill="#1c1c1c"/></g><g transform="translate(691.33,162.67) scale(2.0335) rotate(0)"><path d="M10 5L5 0L0 5L5 10L0 15L5 20L10 15L15 20L20 15L15 10L20 5L15 0L10 5Z" fill="#141414"/></g><g transform="translate(650.67,203.33) scale(2.0335) rotate(0)"><path d="M10 5L5 0L0 5L5 10L0 15L5 20L10 15L15 20L20 15L15 10L20 5L15 0L10 5Z" fill="#121212"/></g><g transform="translate(691.33,203.33) scale(2.0335) rotate(0)"><path d="M10 5L5 0L0 5L5 10L0 15L5 20L10 15L15 20L20 15L15 10L20 5L15 0L10 5Z" fill="#343434"/></g><rect x="732" y="162.66666666666666" width="81.33333333333333" height="81.33333333333333" fill="#3b3b3b"/><g transform="translate(732,162.67) scale(2.0335) rotate(0)"><path d="M10 5L5 0L0 5L5 10L0 15L5 20L10 15L15 20L20 15L15 10L20 5L15 0L10 5Z" fill="#090909"/></g><g transform="translate(772.67,162.67) scale(2.0335) rotate(0)"><path d="M10 5L5 0L0 5L5 10L0 15L5 20L10 15L15 20L20 15L15 10L20 5L15 0L10 5Z" fill="#282828"/></g><g transform="translate(732,203.33) scale(2.0335) rotate(0)"><path d="M10 5L5 0L0 5L5 10L0 15L5 20L10 15L15 20L20 15L15 10L20 5L15 0L10 5Z" fill="#262626"/></g><g transform="translate(772.67,203.33) scale(2.0335) rotate(0)"><path d="M10 5L5 0L0 5L5 10L0 15L5 20L10 15L15 20L20 15L15 10L20 5L15 0L10 5Z" fill="#2d2d2d"/></g><rect x="813.3333333333333" y="162.66666666666666" width="81.33333333333333" height="81.33333333333333" fill="#3b3b3b"/><g transform="translate(813.33,162.67) scale(2.0335) rotate(0)"><path d="M10 5L5 0L0 5L5 10L0 15L5 20L10 15L15 20L20 15L15 10L20 5L15 0L10 5Z" fill="#131313"/></g><g transform="translate(854,162.67) scale(2.0335) rotate(0)"><path d="M10 5L5 0L0 5L5 10L0 15L5 20L10 15L15 20L20 15L15 10L20 5L15 0L10 5Z" fill="#080808"/></g><g transform="translate(813.33,203.33) scale(2.0335) rotate(0)"><path d="M10 5L5 0L0 5L5 10L0 15L5 20L10 15L15 20L20 15L15 10L20 5L15 0L10 5Z" fill="#232323"/></g><g transform="translate(854,203.33) scale(2.0335) rotate(0)"><path d="M10 5L5 0L0 5L5 10L0 15L5 20L10 15L15 20L20 15L15 10L20 5L15 0L10 5Z" fill="#020202"/></g><rect x="0" y="244" width="81.33333333333333" height="81.33333333333333" fill="#3b3b3b"/><g transform="translate(0,244) scale(2.0335) rotate(0)"><path d="M10 5L5 0L0 5L5 10L0 15L5 20L10 15L15 20L20 15L15 10L20 5L15 0L10 5Z" fill="#242424"/></g><g transform="translate(40.67,244) scale(2.0335) rotate(0)"><path d="M10 5L5 0L0 5L5 10L0 15L5 20L10 15L15 20L20 15L15 10L20 5L15 0L10 5Z" fill="#060606"/></g><g transform="translate(0,284.67) scale(2.0335) rotate(0)"><path d="M10 5L5 0L0 5L5 10L0 15L5 20L10 15L15 20L20 15L15 10L20 5L15 0L10 5Z" fill="#323232"/></g><g transform="translate(40.67,284.67) scale(2.0335) rotate(0)"><path d="M10 5L5 0L0 5L5 10L0 15L5 20L10 15L15 20L20 15L15 10L20 5L15 0L10 5Z" fill="#282828"/></g><rect x="81.33333333333333" y="244" width="81.33333333333333" height="81.33333333333333" fill="#3b3b3b"/><g transform="translate(81.33,244) scale(2.0335) rotate(0)"><path d="M10 5L5 0L0 5L5 10L0 15L5 20L10 15L15 20L20 15L15 10L20 5L15 0L10 5Z" fill="#020202"/></g><g transform="translate(122,244) scale(2.0335) rotate(0)"><path d="M10 5L5 0L0 5L5 10L0 15L5 20L10 15L15 20L20 15L15 10L20 5L15 0L10 5Z" fill="#0e0e0e"/></g><g transform="translate(81.33,284.67) scale(2.0335) rotate(0)"><path d="M10 5L5 0L0 5L5 10L0 15L5 20L10 15L15 20L20 15L15 10L20 5L15 0L10 5Z" fill="#0f0f0f"/></g><g transform="translate(122,284.67) scale(2.0335) rotate(0)"><path d="M10 5L5 0L0 5L5 10L0 15L5 20L10 15L15 20L20 15L15 10L20 5L15 0L10 5Z" fill="#282828"/></g><rect x="162.66666666666666" y="244" width="81.33333333333333" height="81.33333333333333" fill="#3b3b3b"/><g transform="translate(162.67,244) scale(2.0335) rotate(0)"><path d="M10 5L5 0L0 5L5 10L0 15L5 20L10 15L15 20L20 15L15 10L20 5L15 0L10 5Z" fill="#232323"/></g><g transform="translate(203.33,244) scale(2.0335) rotate(0)"><path d="M10 5L5 0L0 5L5 10L0 15L5 20L10 15L15 20L20 15L15 10L20 5L15 0L10 5Z" fill="#181818"/></g><g transform="translate(162.67,284.67) scale(2.0335) rotate(0)"><path d="M10 5L5 0L0 5L5 10L0 15L5 20L10 15L15 20L20 15L15 10L20 5L15 0L10 5Z" fill="#383838"/></g><g transform="translate(203.33,284.67) scale(2.0335) rotate(0)"><path d="M10 5L5 0L0 5L5 10L0 15L5 20L10 15L15 20L20 15L15 10L20 5L15 0L10 5Z" fill="#2e2e2e"/></g><rect x="244" y="244" width="81.33333333333333" height="81.33333333333333" fill="#3b3b3b"/><g transform="translate(244,244) scale(2.0335) rotate(0)"><path d="M10 5L5 0L0 5L5 10L0 15L5 20L10 15L15 20L20 15L15 10L20 5L15 0L10 5Z" fill="#2d2d2d"/></g><g transform="translate(284.67,244) scale(2.0335) rotate(0)"><path d="M10 5L5 0L0 5L5 10L0 15L5 20L10 15L15 20L20 15L15 10L20 5L15 0L10 5Z" fill="#020202"/></g><g transform="translate(244,284.67) scale(2.0335) rotate(0)"><path d="M10 5L5 0L0 5L5 10L0 15L5 20L10 15L15 20L20 15L15 10L20 5L15 0L10 5Z" fill="#080808"/></g><g transform="translate(284.67,284.67) scale(2.0335) rotate(0)"><path d="M10 5L5 0L0 5L5 10L0 15L5 20L10 15L15 20L20 15L15 10L20 5L15 0L10 5Z" fill="#242424"/></g><rect x="325.3333333333333" y="244" width="81.33333333333333" height="81.33333333333333" fill="#3b3b3b"/><g transform="translate(325.33,244) scale(2.0335) rotate(0)"><path d="M10 5L5 0L0 5L5 10L0 15L5 20L10 15L15 20L20 15L15 10L20 5L15 0L10 5Z" fill="#292929"/></g><g transform="translate(366,244) scale(2.0335) rotate(0)"><path d="M10 5L5 0L0 5L5 10L0 15L5 20L10 15L15 20L20 15L15 10L20 5L15 0L10 5Z" fill="#0b0b0b"/></g><g transform="translate(325.33,284.67) scale(2.0335) rotate(0)"><path d="M10 5L5 0L0 5L5 10L0 15L5 20L10 15L15 20L20 15L15 10L20 5L15 0L10 5Z" fill="#292929"/></g><g transform="translate(366,284.67) scale(2.0335) rotate(0)"><path d="M10 5L5 0L0 5L5 10L0 15L5 20L10 15L15 20L20 15L15 10L20 5L15 0L10 5Z" fill="#010101"/></g><rect x="406.66666666666663" y="244" width="81.33333333333333" height="81.33333333333333" fill="#3b3b3b"/><g transform="translate(406.67,244) scale(2.0335) rotate(0)"><path d="M10 5L5 0L0 5L5 10L0 15L5 20L10 15L15 20L20 15L15 10L20 5L15 0L10 5Z" fill="#121212"/></g><g transform="translate(447.33,244) scale(2.0335) rotate(0)"><path d="M10 5L5 0L0 5L5 10L0 15L5 20L10 15L15 20L20 15L15 10L20 5L15 0L10 5Z" fill="#1a1a1a"/></g><g transform="translate(406.67,284.67) scale(2.0335) rotate(0)"><path d="M10 5L5 0L0 5L5 10L0 15L5 20L10 15L15 20L20 15L15 10L20 5L15 0L10 5Z" fill="#101010"/></g><g transform="translate(447.33,284.67) scale(2.0335) rotate(0)"><path d="M10 5L5 0L0 5L5 10L0 15L5 20L10 15L15 20L20 15L15 10L20 5L15 0L10 5Z" fill="#070707"/></g><rect x="488" y="244" width="81.33333333333333" height="81.33333333333333" fill="#3b3b3b"/><g transform="translate(488,244) scale(2.0335) rotate(0)"><path d="M10 5L5 0L0 5L5 10L0 15L5 20L10 15L15 20L20 15L15 10L20 5L15 0L10 5Z" fill="#2e2e2e"/></g><g transform="translate(528.67,244) scale(2.0335) rotate(0)"><path d="M10 5L5 0L0 5L5 10L0 15L5 20L10 15L15 20L20 15L15 10L20 5L15 0L10 5Z" fill="#131313"/></g><g transform="translate(488,284.67) scale(2.0335) rotate(0)"><path d="M10 5L5 0L0 5L5 10L0 15L5 20L10 15L15 20L20 15L15 10L20 5L15 0L10 5Z" fill="#393939"/></g><g transform="translate(528.67,284.67) scale(2.0335) rotate(0)"><path d="M10 5L5 0L0 5L5 10L0 15L5 20L10 15L15 20L20 15L15 10L20 5L15 0L10 5Z" fill="#070707"/></g><rect x="569.3333333333333" y="244" width="81.33333333333333" height="81.33333333333333" fill="#3b3b3b"/><g transform="translate(569.33,244) scale(2.0335) rotate(0)"><path d="M10 5L5 0L0 5L5 10L0 15L5 20L10 15L15 20L20 15L15 10L20 5L15 0L10 5Z" fill="#0f0f0f"/></g><g transform="translate(610,244) scale(2.0335) rotate(0)"><path d="M10 5L5 0L0 5L5 10L0 15L5 20L10 15L15 20L20 15L15 10L20 5L15 0L10 5Z" fill="#080808"/></g><g transform="translate(569.33,284.67) scale(2.0335) rotate(0)"><path d="M10 5L5 0L0 5L5 10L0 15L5 20L10 15L15 20L20 15L15 10L20 5L15 0L10 5Z" fill="#1d1d1d"/></g><g transform="translate(610,284.67) scale(2.0335) rotate(0)"><path d="M10 5L5 0L0 5L5 10L0 15L5 20L10 15L15 20L20 15L15 10L20 5L15 0L10 5Z" fill="#2e2e2e"/></g><rect x="650.6666666666666" y="244" width="81.33333333333333" height="81.33333333333333" fill="#3b3b3b"/><g transform="translate(650.67,244) scale(2.0335) rotate(0)"><path d="M10 5L5 0L0 5L5 10L0 15L5 20L10 15L15 20L20 15L15 10L20 5L15 0L10 5Z" fill="#383838"/></g><g transform="translate(691.33,244) scale(2.0335) rotate(0)"><path d="M10 5L5 0L0 5L5 10L0 15L5 20L10 15L15 20L20 15L15 10L20 5L15 0L10 5Z" fill="#242424"/></g><g transform="translate(650.67,284.67) scale(2.0335) rotate(0)"><path d="M10 5L5 0L0 5L5 10L0 15L5 20L10 15L15 20L20 15L15 10L20 5L15 0L10 5Z" fill="#282828"/></g><g transform="translate(691.33,284.67) scale(2.0335) rotate(0)"><path d="M10 5L5 0L0 5L5 10L0 15L5 20L10 15L15 20L20 15L15 10L20 5L15 0L10 5Z" fill="#070707"/></g><rect x="732" y="244" width="81.33333333333333" height="81.33333333333333" fill="#3b3b3b"/><g transform="translate(732,244) scale(2.0335) rotate(0)"><path d="M10 5L5 0L0 5L5 10L0 15L5 20L10 15L15 20L20 15L15 10L20 5L15 0L10 5Z" fill="#181818"/></g><g transform="translate(772.67,244) scale(2.0335) rotate(0)"><path d="M10 5L5 0L0 5L5 10L0 15L5 20L10 15L15 20L20 15L15 10L20 5L15 0L10 5Z" fill="#1b1b1b"/></g><g transform="translate(732,284.67) scale(2.0335) rotate(0)"><path d="M10 5L5 0L0 5L5 10L0 15L5 20L10 15L15 20L20 15L15 10L20 5L15 0L10 5Z" fill="#020202"/></g><g transform="translate(772.67,284.67) scale(2.0335) rotate(0)"><path d="M10 5L5 0L0 5L5 10L0 15L5 20L10 15L15 20L20 15L15 10L20 5L15 0L10 5Z" fill="#141414"/></g><rect x="813.3333333333333" y="244" width="81.33333333333333" height="81.33333333333333" fill="#3b3b3b"/><g transform="translate(813.33,244) scale(2.0335) rotate(0)"><path d="M10 5L5 0L0 5L5 10L0 15L5 20L10 15L15 20L20 15L15 10L20 5L15 0L10 5Z" fill="#030303"/></g><g transform="translate(854,244) scale(2.0335) rotate(0)"><path d="M10 5L5 0L0 5L5 10L0 15L5 20L10 15L15 20L20 15L15 10L20 5L15 0L10 5Z" fill="#070707"/></g><g transform="translate(813.33,284.67) scale(2.0335) rotate(0)"><path d="M10 5L5 0L0 5L5 10L0 15L5 20L10 15L15 20L20 15L15 10L20 5L15 0L10 5Z" fill="#111111"/></g><g transform="translate(854,284.67) scale(2.0335) rotate(0)"><path d="M10 5L5 0L0 5L5 10L0 15L5 20L10 15L15 20L20 15L15 10L20 5L15 0L10 5Z" fill="#1d1d1d"/></g><rect x="0" y="325.3333333333333" width="81.33333333333333" height="81.33333333333333" fill="#3b3b3b"/><g transform="translate(0,325.33) scale(2.0335) rotate(0)"><path d="M10 5L5 0L0 5L5 10L0 15L5 20L10 15L15 20L20 15L15 10L20 5L15 0L10 5Z" fill="#313131"/></g><g transform="translate(40.67,325.33) scale(2.0335) rotate(0)"><path d="M10 5L5 0L0 5L5 10L0 15L5 20L10 15L15 20L20 15L15 10L20 5L15 0L10 5Z" fill="#252525"/></g><g transform="translate(0,366) scale(2.0335) rotate(0)"><path d="M10 5L5 0L0 5L5 10L0 15L5 20L10 15L15 20L20 15L15 10L20 5L15 0L10 5Z" fill="#343434"/></g><g transform="translate(40.67,366) scale(2.0335) rotate(0)"><path d="M10 5L5 0L0 5L5 10L0 15L5 20L10 15L15 20L20 15L15 10L20 5L15 0L10 5Z" fill="#1b1b1b"/></g><rect x="81.33333333333333" y="325.3333333333333" width="81.33333333333333" height="81.33333333333333" fill="#3b3b3b"/><g transform="translate(81.33,325.33) scale(2.0335) rotate(0)"><path d="M10 5L5 0L0 5L5 10L0 15L5 20L10 15L15 20L20 15L15 10L20 5L15 0L10 5Z" fill="#1c1c1c"/></g><g transform="translate(122,325.33) scale(2.0335) rotate(0)"><path d="M10 5L5 0L0 5L5 10L0 15L5 20L10 15L15 20L20 15L15 10L20 5L15 0L10 5Z" fill="#020202"/></g><g transform="translate(81.33,366) scale(2.0335) rotate(0)"><path d="M10 5L5 0L0 5L5 10L0 15L5 20L10 15L15 20L20 15L15 10L20 5L15 0L10 5Z" fill="#262626"/></g><g transform="translate(122,366) scale(2.0335) rotate(0)"><path d="M10 5L5 0L0 5L5 10L0 15L5 20L10 15L15 20L20 15L15 10L20 5L15 0L10 5Z" fill="#202020"/></g><rect x="162.66666666666666" y="325.3333333333333" width="81.33333333333333" height="81.33333333333333" fill="#3b3b3b"/><g transform="translate(162.67,325.33) scale(2.0335) rotate(0)"><path d="M10 5L5 0L0 5L5 10L0 15L5 20L10 15L15 20L20 15L15 10L20 5L15 0L10 5Z" fill="#333333"/></g><g transform="translate(203.33,325.33) scale(2.0335) rotate(0)"><path d="M10 5L5 0L0 5L5 10L0 15L5 20L10 15L15 20L20 15L15 10L20 5L15 0L10 5Z" fill="#323232"/></g><g transform="translate(162.67,366) scale(2.0335) rotate(0)"><path d="M10 5L5 0L0 5L5 10L0 15L5 20L10 15L15 20L20 15L15 10L20 5L15 0L10 5Z" fill="#3a3a3a"/></g><g transform="translate(203.33,366) scale(2.0335) rotate(0)"><path d="M10 5L5 0L0 5L5 10L0 15L5 20L10 15L15 20L20 15L15 10L20 5L15 0L10 5Z" fill="#333333"/></g><rect x="244" y="325.3333333333333" width="81.33333333333333" height="81.33333333333333" fill="#3b3b3b"/><g transform="translate(244,325.33) scale(2.0335) rotate(0)"><path d="M10 5L5 0L0 5L5 10L0 15L5 20L10 15L15 20L20 15L15 10L20 5L15 0L10 5Z" fill="#3a3a3a"/></g><g transform="translate(284.67,325.33) scale(2.0335) rotate(0)"><path d="M10 5L5 0L0 5L5 10L0 15L5 20L10 15L15 20L20 15L15 10L20 5L15 0L10 5Z" fill="#2c2c2c"/></g><g transform="translate(244,366) scale(2.0335) rotate(0)"><path d="M10 5L5 0L0 5L5 10L0 15L5 20L10 15L15 20L20 15L15 10L20 5L15 0L10 5Z" fill="#242424"/></g><g transform="translate(284.67,366) scale(2.0335) rotate(0)"><path d="M10 5L5 0L0 5L5 10L0 15L5 20L10 15L15 20L20 15L15 10L20 5L15 0L10 5Z" fill="#2a2a2a"/></g><rect x="325.3333333333333" y="325.3333333333333" width="81.33333333333333" height="81.33333333333333" fill="#3b3b3b"/><g transform="translate(325.33,325.33) scale(2.0335) rotate(0)"><path d="M10 5L5 0L0 5L5 10L0 15L5 20L10 15L15 20L20 15L15 10L20 5L15 0L10 5Z" fill="#0c0c0c"/></g><g transform="translate(366,325.33) scale(2.0335) rotate(0)"><path d="M10 5L5 0L0 5L5 10L0 15L5 20L10 15L15 20L20 15L15 10L20 5L15 0L10 5Z" fill="#323232"/></g><g transform="translate(325.33,366) scale(2.0335) rotate(0)"><path d="M10 5L5 0L0 5L5 10L0 15L5 20L10 15L15 20L20 15L15 10L20 5L15 0L10 5Z" fill="#1f1f1f"/></g><g transform="translate(366,366) scale(2.0335) rotate(0)"><path d="M10 5L5 0L0 5L5 10L0 15L5 20L10 15L15 20L20 15L15 10L20 5L15 0L10 5Z" fill="#131313"/></g><rect x="406.66666666666663" y="325.3333333333333" width="81.33333333333333" height="81.33333333333333" fill="#3b3b3b"/><g transform="translate(406.67,325.33) scale(2.0335) rotate(0)"><path d="M10 5L5 0L0 5L5 10L0 15L5 20L10 15L15 20L20 15L15 10L20 5L15 0L10 5Z" fill="#393939"/></g><g transform="translate(447.33,325.33) scale(2.0335) rotate(0)"><path d="M10 5L5 0L0 5L5 10L0 15L5 20L10 15L15 20L20 15L15 10L20 5L15 0L10 5Z" fill="#181818"/></g><g transform="translate(406.67,366) scale(2.0335) rotate(0)"><path d="M10 5L5 0L0 5L5 10L0 15L5 20L10 15L15 20L20 15L15 10L20 5L15 0L10 5Z" fill="#0f0f0f"/></g><g transform="translate(447.33,366) scale(2.0335) rotate(0)"><path d="M10 5L5 0L0 5L5 10L0 15L5 20L10 15L15 20L20 15L15 10L20 5L15 0L10 5Z" fill="#040404"/></g><rect x="488" y="325.3333333333333" width="81.33333333333333" height="81.33333333333333" fill="#3b3b3b"/><g transform="translate(488,325.33) scale(2.0335) rotate(0)"><path d="M10 5L5 0L0 5L5 10L0 15L5 20L10 15L15 20L20 15L15 10L20 5L15 0L10 5Z" fill="#1d1d1d"/></g><g transform="translate(528.67,325.33) scale(2.0335) rotate(0)"><path d="M10 5L5 0L0 5L5 10L0 15L5 20L10 15L15 20L20 15L15 10L20 5L15 0L10 5Z" fill="#010101"/></g><g transform="translate(488,366) scale(2.0335) rotate(0)"><path d="M10 5L5 0L0 5L5 10L0 15L5 20L10 15L15 20L20 15L15 10L20 5L15 0L10 5Z" fill="#121212"/></g><g transform="translate(528.67,366) scale(2.0335) rotate(0)"><path d="M10 5L5 0L0 5L5 10L0 15L5 20L10 15L15 20L20 15L15 10L20 5L15 0L10 5Z" fill="#1d1d1d"/></g><rect x="569.3333333333333" y="325.3333333333333" width="81.33333333333333" height="81.33333333333333" fill="#3b3b3b"/><g transform="translate(569.33,325.33) scale(2.0335) rotate(0)"><path d="M10 5L5 0L0 5L5 10L0 15L5 20L10 15L15 20L20 15L15 10L20 5L15 0L10 5Z" fill="#151515"/></g><g transform="translate(610,325.33) scale(2.0335) rotate(0)"><path d="M10 5L5 0L0 5L5 10L0 15L5 20L10 15L15 20L20 15L15 10L20 5L15 0L10 5Z" fill="#060606"/></g><g transform="translate(569.33,366) scale(2.0335) rotate(0)"><path d="M10 5L5 0L0 5L5 10L0 15L5 20L10 15L15 20L20 15L15 10L20 5L15 0L10 5Z" fill="#0f0f0f"/></g><g transform="translate(610,366) scale(2.0335) rotate(0)"><path d="M10 5L5 0L0 5L5 10L0 15L5 20L10 15L15 20L20 15L15 10L20 5L15 0L10 5Z" fill="#262626"/></g><rect x="650.6666666666666" y="325.3333333333333" width="81.33333333333333" height="81.33333333333333" fill="#3b3b3b"/><g transform="translate(650.67,325.33) scale(2.0335) rotate(0)"><path d="M10 5L5 0L0 5L5 10L0 15L5 20L10 15L15 20L20 15L15 10L20 5L15 0L10 5Z" fill="#010101"/></g><g transform="translate(691.33,325.33) scale(2.0335) rotate(0)"><path d="M10 5L5 0L0 5L5 10L0 15L5 20L10 15L15 20L20 15L15 10L20 5L15 0L10 5Z" fill="#2c2c2c"/></g><g transform="translate(650.67,366) scale(2.0335) rotate(0)"><path d="M10 5L5 0L0 5L5 10L0 15L5 20L10 15L15 20L20 15L15 10L20 5L15 0L10 5Z" fill="#000000"/></g><g transform="translate(691.33,366) scale(2.0335) rotate(0)"><path d="M10 5L5 0L0 5L5 10L0 15L5 20L10 15L15 20L20 15L15 10L20 5L15 0L10 5Z" fill="#161616"/></g><rect x="732" y="325.3333333333333" width="81.33333333333333" height="81.33333333333333" fill="#3b3b3b"/><g transform="translate(732,325.33) scale(2.0335) rotate(0)"><path d="M10 5L5 0L0 5L5 10L0 15L5 20L10 15L15 20L20 15L15 10L20 5L15 0L10 5Z" fill="#1a1a1a"/></g><g transform="translate(772.67,325.33) scale(2.0335) rotate(0)"><path d="M10 5L5 0L0 5L5 10L0 15L5 20L10 15L15 20L20 15L15 10L20 5L15 0L10 5Z" fill="#353535"/></g><g transform="translate(732,366) scale(2.0335) rotate(0)"><path d="M10 5L5 0L0 5L5 10L0 15L5 20L10 15L15 20L20 15L15 10L20 5L15 0L10 5Z" fill="#2f2f2f"/></g><g transform="translate(772.67,366) scale(2.0335) rotate(0)"><path d="M10 5L5 0L0 5L5 10L0 15L5 20L10 15L15 20L20 15L15 10L20 5L15 0L10 5Z" fill="#070707"/></g><rect x="813.3333333333333" y="325.3333333333333" width="81.33333333333333" height="81.33333333333333" fill="#3b3b3b"/><g transform="translate(813.33,325.33) scale(2.0335) rotate(0)"><path d="M10 5L5 0L0 5L5 10L0 15L5 20L10 15L15 20L20 15L15 10L20 5L15 0L10 5Z" fill="#0c0c0c"/></g><g transform="translate(854,325.33) scale(2.0335) rotate(0)"><path d="M10 5L5 0L0 5L5 10L0 15L5 20L10 15L15 20L20 15L15 10L20 5L15 0L10 5Z" fill="#363636"/></g><g transform="translate(813.33,366) scale(2.0335) rotate(0)"><path d="M10 5L5 0L0 5L5 10L0 15L5 20L10 15L15 20L20 15L15 10L20 5L15 0L10 5Z" fill="#272727"/></g><g transform="translate(854,366) scale(2.0335) rotate(0)"><path d="M10 5L5 0L0 5L5 10L0 15L5 20L10 15L15 20L20 15L15 10L20 5L15 0L10 5Z" fill="#1a1a1a"/></g><rect x="0" y="406.66666666666663" width="81.33333333333333" height="81.33333333333333" fill="#3b3b3b"/><g transform="translate(0,406.67) scale(2.0335) rotate(0)"><path d="M10 5L5 0L0 5L5 10L0 15L5 20L10 15L15 20L20 15L15 10L20 5L15 0L10 5Z" fill="#343434"/></g><g transform="translate(40.67,406.67) scale(2.0335) rotate(0)"><path d="M10 5L5 0L0 5L5 10L0 15L5 20L10 15L15 20L20 15L15 10L20 5L15 0L10 5Z" fill="#333333"/></g><g transform="translate(0,447.33) scale(2.0335) rotate(0)"><path d="M10 5L5 0L0 5L5 10L0 15L5 20L10 15L15 20L20 15L15 10L20 5L15 0L10 5Z" fill="#101010"/></g><g transform="translate(40.67,447.33) scale(2.0335) rotate(0)"><path d="M10 5L5 0L0 5L5 10L0 15L5 20L10 15L15 20L20 15L15 10L20 5L15 0L10 5Z" fill="#1d1d1d"/></g><rect x="81.33333333333333" y="406.66666666666663" width="81.33333333333333" height="81.33333333333333" fill="#3b3b3b"/><g transform="translate(81.33,406.67) scale(2.0335) rotate(0)"><path d="M10 5L5 0L0 5L5 10L0 15L5 20L10 15L15 20L20 15L15 10L20 5L15 0L10 5Z" fill="#010101"/></g><g transform="translate(122,406.67) scale(2.0335) rotate(0)"><path d="M10 5L5 0L0 5L5 10L0 15L5 20L10 15L15 20L20 15L15 10L20 5L15 0L10 5Z" fill="#2d2d2d"/></g><g transform="translate(81.33,447.33) scale(2.0335) rotate(0)"><path d="M10 5L5 0L0 5L5 10L0 15L5 20L10 15L15 20L20 15L15 10L20 5L15 0L10 5Z" fill="#191919"/></g><g transform="translate(122,447.33) scale(2.0335) rotate(0)"><path d="M10 5L5 0L0 5L5 10L0 15L5 20L10 15L15 20L20 15L15 10L20 5L15 0L10 5Z" fill="#131313"/></g><rect x="162.66666666666666" y="406.66666666666663" width="81.33333333333333" height="81.33333333333333" fill="#3b3b3b"/><g transform="translate(162.67,406.67) scale(2.0335) rotate(0)"><path d="M10 5L5 0L0 5L5 10L0 15L5 20L10 15L15 20L20 15L15 10L20 5L15 0L10 5Z" fill="#363636"/></g><g transform="translate(203.33,406.67) scale(2.0335) rotate(0)"><path d="M10 5L5 0L0 5L5 10L0 15L5 20L10 15L15 20L20 15L15 10L20 5L15 0L10 5Z" fill="#2a2a2a"/></g><g transform="translate(162.67,447.33) scale(2.0335) rotate(0)"><path d="M10 5L5 0L0 5L5 10L0 15L5 20L10 15L15 20L20 15L15 10L20 5L15 0L10 5Z" fill="#141414"/></g><g transform="translate(203.33,447.33) scale(2.0335) rotate(0)"><path d="M10 5L5 0L0 5L5 10L0 15L5 20L10 15L15 20L20 15L15 10L20 5L15 0L10 5Z" fill="#292929"/></g><rect x="244" y="406.66666666666663" width="81.33333333333333" height="81.33333333333333" fill="#3b3b3b"/><g transform="translate(244,406.67) scale(2.0335) rotate(0)"><path d="M10 5L5 0L0 5L5 10L0 15L5 20L10 15L15 20L20 15L15 10L20 5L15 0L10 5Z" fill="#333333"/></g><g transform="translate(284.67,406.67) scale(2.0335) rotate(0)"><path d="M10 5L5 0L0 5L5 10L0 15L5 20L10 15L15 20L20 15L15 10L20 5L15 0L10 5Z" fill="#212121"/></g><g transform="translate(244,447.33) scale(2.0335) rotate(0)"><path d="M10 5L5 0L0 5L5 10L0 15L5 20L10 15L15 20L20 15L15 10L20 5L15 0L10 5Z" fill="#252525"/></g><g transform="translate(284.67,447.33) scale(2.0335) rotate(0)"><path d="M10 5L5 0L0 5L5 10L0 15L5 20L10 15L15 20L20 15L15 10L20 5L15 0L10 5Z" fill="#151515"/></g><rect x="325.3333333333333" y="406.66666666666663" width="81.33333333333333" height="81.33333333333333" fill="#3b3b3b"/><g transform="translate(325.33,406.67) scale(2.0335) rotate(0)"><path d="M10 5L5 0L0 5L5 10L0 15L5 20L10 15L15 20L20 15L15 10L20 5L15 0L10 5Z" fill="#212121"/></g><g transform="translate(366,406.67) scale(2.0335) rotate(0)"><path d="M10 5L5 0L0 5L5 10L0 15L5 20L10 15L15 20L20 15L15 10L20 5L15 0L10 5Z" fill="#2f2f2f"/></g><g transform="translate(325.33,447.33) scale(2.0335) rotate(0)"><path d="M10 5L5 0L0 5L5 10L0 15L5 20L10 15L15 20L20 15L15 10L20 5L15 0L10 5Z" fill="#0c0c0c"/></g><g transform="translate(366,447.33) scale(2.0335) rotate(0)"><path d="M10 5L5 0L0 5L5 10L0 15L5 20L10 15L15 20L20 15L15 10L20 5L15 0L10 5Z" fill="#1c1c1c"/></g><rect x="406.66666666666663" y="406.66666666666663" width="81.33333333333333" height="81.33333333333333" fill="#3b3b3b"/><g transform="translate(406.67,406.67) scale(2.0335) rotate(0)"><path d="M10 5L5 0L0 5L5 10L0 15L5 20L10 15L15 20L20 15L15 10L20 5L15 0L10 5Z" fill="#0e0e0e"/></g><g transform="translate(447.33,406.67) scale(2.0335) rotate(0)"><path d="M10 5L5 0L0 5L5 10L0 15L5 20L10 15L15 20L20 15L15 10L20 5L15 0L10 5Z" fill="#141414"/></g><g transform="translate(406.67,447.33) scale(2.0335) rotate(0)"><path d="M10 5L5 0L0 5L5 10L0 15L5 20L10 15L15 20L20 15L15 10L20 5L15 0L10 5Z" fill="#2d2d2d"/></g><g transform="translate(447.33,447.33) scale(2.0335) rotate(0)"><path d="M10 5L5 0L0 5L5 10L0 15L5 20L10 15L15 20L20 15L15 10L20 5L15 0L10 5Z" fill="#3a3a3a"/></g><rect x="488" y="406.66666666666663" width="81.33333333333333" height="81.33333333333333" fill="#3b3b3b"/><g transform="translate(488,406.67) scale(2.0335) rotate(0)"><path d="M10 5L5 0L0 5L5 10L0 15L5 20L10 15L15 20L20 15L15 10L20 5L15 0L10 5Z" fill="#050505"/></g><g transform="translate(528.67,406.67) scale(2.0335) rotate(0)"><path d="M10 5L5 0L0 5L5 10L0 15L5 20L10 15L15 20L20 15L15 10L20 5L15 0L10 5Z" fill="#020202"/></g><g transform="translate(488,447.33) scale(2.0335) rotate(0)"><path d="M10 5L5 0L0 5L5 10L0 15L5 20L10 15L15 20L20 15L15 10L20 5L15 0L10 5Z" fill="#393939"/></g><g transform="translate(528.67,447.33) scale(2.0335) rotate(0)"><path d="M10 5L5 0L0 5L5 10L0 15L5 20L10 15L15 20L20 15L15 10L20 5L15 0L10 5Z" fill="#1a1a1a"/></g><rect x="569.3333333333333" y="406.66666666666663" width="81.33333333333333" height="81.33333333333333" fill="#3b3b3b"/><g transform="translate(569.33,406.67) scale(2.0335) rotate(0)"><path d="M10 5L5 0L0 5L5 10L0 15L5 20L10 15L15 20L20 15L15 10L20 5L15 0L10 5Z" fill="#1e1e1e"/></g><g transform="translate(610,406.67) scale(2.0335) rotate(0)"><path d="M10 5L5 0L0 5L5 10L0 15L5 20L10 15L15 20L20 15L15 10L20 5L15 0L10 5Z" fill="#262626"/></g><g transform="translate(569.33,447.33) scale(2.0335) rotate(0)"><path d="M10 5L5 0L0 5L5 10L0 15L5 20L10 15L15 20L20 15L15 10L20 5L15 0L10 5Z" fill="#272727"/></g><g transform="translate(610,447.33) scale(2.0335) rotate(0)"><path d="M10 5L5 0L0 5L5 10L0 15L5 20L10 15L15 20L20 15L15 10L20 5L15 0L10 5Z" fill="#303030"/></g><rect x="650.6666666666666" y="406.66666666666663" width="81.33333333333333" height="81.33333333333333" fill="#3b3b3b"/><g transform="translate(650.67,406.67) scale(2.0335) rotate(0)"><path d="M10 5L5 0L0 5L5 10L0 15L5 20L10 15L15 20L20 15L15 10L20 5L15 0L10 5Z" fill="#191919"/></g><g transform="translate(691.33,406.67) scale(2.0335) rotate(0)"><path d="M10 5L5 0L0 5L5 10L0 15L5 20L10 15L15 20L20 15L15 10L20 5L15 0L10 5Z" fill="#161616"/></g><g transform="translate(650.67,447.33) scale(2.0335) rotate(0)"><path d="M10 5L5 0L0 5L5 10L0 15L5 20L10 15L15 20L20 15L15 10L20 5L15 0L10 5Z" fill="#242424"/></g><g transform="translate(691.33,447.33) scale(2.0335) rotate(0)"><path d="M10 5L5 0L0 5L5 10L0 15L5 20L10 15L15 20L20 15L15 10L20 5L15 0L10 5Z" fill="#0f0f0f"/></g><rect x="732" y="406.66666666666663" width="81.33333333333333" height="81.33333333333333" fill="#3b3b3b"/><g transform="translate(732,406.67) scale(2.0335) rotate(0)"><path d="M10 5L5 0L0 5L5 10L0 15L5 20L10 15L15 20L20 15L15 10L20 5L15 0L10 5Z" fill="#161616"/></g><g transform="translate(772.67,406.67) scale(2.0335) rotate(0)"><path d="M10 5L5 0L0 5L5 10L0 15L5 20L10 15L15 20L20 15L15 10L20 5L15 0L10 5Z" fill="#2d2d2d"/></g><g transform="translate(732,447.33) scale(2.0335) rotate(0)"><path d="M10 5L5 0L0 5L5 10L0 15L5 20L10 15L15 20L20 15L15 10L20 5L15 0L10 5Z" fill="#2a2a2a"/></g><g transform="translate(772.67,447.33) scale(2.0335) rotate(0)"><path d="M10 5L5 0L0 5L5 10L0 15L5 20L10 15L15 20L20 15L15 10L20 5L15 0L10 5Z" fill="#111111"/></g><rect x="813.3333333333333" y="406.66666666666663" width="81.33333333333333" height="81.33333333333333" fill="#3b3b3b"/><g transform="translate(813.33,406.67) scale(2.0335) rotate(0)"><path d="M10 5L5 0L0 5L5 10L0 15L5 20L10 15L15 20L20 15L15 10L20 5L15 0L10 5Z" fill="#1a1a1a"/></g><g transform="translate(854,406.67) scale(2.0335) rotate(0)"><path d="M10 5L5 0L0 5L5 10L0 15L5 20L10 15L15 20L20 15L15 10L20 5L15 0L10 5Z" fill="#161616"/></g><g transform="translate(813.33,447.33) scale(2.0335) rotate(0)"><path d="M10 5L5 0L0 5L5 10L0 15L5 20L10 15L15 20L20 15L15 10L20 5L15 0L10 5Z" fill="#393939"/></g><g transform="translate(854,447.33) scale(2.0335) rotate(0)"><path d="M10 5L5 0L0 5L5 10L0 15L5 20L10 15L15 20L20 15L15 10L20 5L15 0L10 5Z" fill="#2b2b2b"/></g></g></svg>