<?xml version="1.0" standalone="no"?><svg xmlns:xlink="http://www.w3.org/1999/xlink" xmlns="http://www.w3.org/2000/svg" viewBox="0 0 1000 583.3454863642992" preserveAspectRatio="xMaxYMax slice"><g transform="scale(1.5851779520769)"><rect x="0" y="0" width="630.8571428571429" height="368" fill="#d3d3d3"/><rect x="231.31428571428572" y="21.02857142857143" width="10.514285714285712" height="10.514285714285712" fill="#d3d3d3"/><circle cx="233.94" cy="28.919999999999998" r="2.63" fill="#df3a74"/><rect x="389.0285714285714" y="21.02857142857143" width="10.514285714285712" height="10.514285714285712" fill="#d3d3d3"/><path d="M 394.29 21.03 A 5.26 5.26 0 0 1  399.55 26.29 L 394.29 21.03 A 5.26 5.26 0 0 0 399.55 26.29" fill="#ea7f98"/><path d="M 394.29 31.549999999999997 A 5.26 5.26 0 0 1  399.55 26.29 L 394.29 31.549999999999997 A 5.26 5.26 0 0 0 399.55 26.29" fill="#ef708e"/><rect x="123.28751020408163" y="70.71608163265306" width="16.282122448979592" height="16.282122448979592" fill="#d3d3d3"/><rect x="489.84555102040815" y="69.2741224489796" width="19.16604081632653" height="19.16604081632653" fill="#d3d3d3"/><path d="M 499.43 78.85 A 9.58 9.58 0 0 0 509.01 69.27 L 499.43 69.27" fill="#d895ac"/><rect x="543.8589387755102" y="70.71608163265306" width="16.282122448979592" height="16.282122448979592" fill="#d3d3d3"/><path d="M 543.86 78.86 A 8.14 8.14 0 0 0 552 70.72 L 543.86 70.72" fill="#d6adbc"/><path d="M 552 70.72 A 8.14 8.14 0 0 1  560.14 78.86 L 552 70.72 A 8.14 8.14 0 0 0 560.14 78.86" fill="#fe3967"/><rect x="21.02857142857143" y="126.17142857142856" width="10.514285714285712" height="10.514285714285712" fill="#d3d3d3"/><circle cx="28.919999999999998" cy="134.06" r="2.63" fill="#ddaeb9"/><rect x="120.40359183673469" y="120.40359183673469" width="22.049959183673465" height="22.049959183673465" fill="#d3d3d3"/><path d="M 131.43 131.42000000000002 A 11.02 11.02 0 0 1  142.45000000000002 120.4 L 142.45000000000002 131.42000000000002" fill="#df4078"/><rect x="170.09110204081634" y="117.51967346938775" width="27.81779591836734" height="27.81779591836734" fill="#d3d3d3"/><g transform="translate(170.09,117.52) scale(0.6955) rotate(0)"><path d="M10 0H20L0 20V10L10 0Z" fill="#d4c6cb"/><path d="M20 10V20H10L20 10Z" fill="#d4c6cb"/></g><rect x="322.03755102040816" y="111.75183673469388" width="39.3534693877551" height="39.3534693877551" fill="#d3d3d3"/><circle cx="331.88" cy="121.59" r="9.84" fill="#e12668"/><rect x="430.0643265306122" y="114.63575510204082" width="33.58563265306122" height="33.58563265306122" fill="#d3d3d3"/><g transform="translate(446.86,114.64) scale(0.8394999999999999) rotate(0)"><path d="M10 0H20L0 20V10L10 0Z" fill="#e21b61"/><path d="M20 10V20H10L20 10Z" fill="#e21b61"/></g><path d="M 430.06 131.43 A 16.79 16.79 0 0 1 446.85 148.22 L 430.06 148.22" fill="#ee728f"/><rect x="485.5196734693877" y="117.51967346938775" width="27.81779591836734" height="27.81779591836734" fill="#d3d3d3"/><g transform="translate(485.52,117.52) scale(0.6955) rotate(0)"><path d="M10 0H20L0 20V10L10 0Z" fill="#e68fa4"/><path d="M20 10V20H10L20 10Z" fill="#e68fa4"/></g><rect x="596.4303673469387" y="123.28751020408163" width="16.282122448979585" height="16.282122448979585" fill="#d3d3d3"/><path d="M 604.57 131.43 A 8.14 8.14 0 0 1  612.71 123.29 L 604.57 131.43 A 8.14 8.14 0 0 0 612.71 123.29" fill="#e12869"/><rect x="69.39428571428572" y="174.53714285714287" width="18.925714285714285" height="18.925714285714285" fill="#d3d3d3"/><path d="M 69.39 174.54 A 9.46 9.46 0 0 1  78.85 184 L 69.39 174.54 A 9.46 9.46 0 0 0 78.85 184" fill="#dd5384"/><g transform="translate(69.39,184) scale(0.47300000000000003) rotate(0)"><path d="M10 0H20L0 20V10L10 0Z" fill="#ddafba"/><path d="M20 10V20H10L20 10Z" fill="#ddafba"/></g><rect x="214.49142857142857" y="161.92000000000002" width="44.16" height="44.16" fill="#d3d3d3"/><circle cx="225.53" cy="172.95999999999998" r="11.04" fill="#dd5786"/><g transform="translate(236.57,161.92) scale(1.1039999999999999) rotate(0)"><path d="M10 0H20L0 20V10L10 0Z" fill="#d4d1d2"/><path d="M20 10V20H10L20 10Z" fill="#d4d1d2"/></g><path d="M 236.57 184 A 22.08 22.08 0 0 1 258.65 206.07999999999998 L 236.57 206.07999999999998" fill="#db6d94"/><rect x="315.42857142857144" y="157.71428571428572" width="52.57142857142857" height="52.57142857142857" fill="#d3d3d3"/><rect x="21.02857142857143" y="231.31428571428572" width="10.514285714285712" height="10.514285714285712" fill="#d3d3d3"/><path d="M 26.29 236.57 A 5.26 5.26 0 0 1  31.549999999999997 241.82999999999998 L 26.29 236.57 A 5.26 5.26 0 0 0 31.549999999999997 241.82999999999998" fill="#f84d75"/><rect x="166.12571428571428" y="218.69714285714284" width="35.748571428571424" height="35.748571428571424" fill="#d3d3d3"/><rect x="315.42857142857144" y="210.28571428571428" width="52.57142857142857" height="52.57142857142857" fill="#d3d3d3"/><rect x="368" y="210.28571428571428" width="52.57142857142857" height="52.57142857142857" fill="#d3d3d3"/><g transform="translate(368,236.57) scale(1.3145) rotate(0)"><path d="M10 0H20L0 20V10L10 0Z" fill="#d3d2d2"/><path d="M20 10V20H10L20 10Z" fill="#d3d2d2"/></g><rect x="481.5542857142857" y="218.69714285714284" width="35.748571428571424" height="35.748571428571424" fill="#d3d3d3"/><path d="M 481.55 218.7 A 17.87 17.87 0 0 1  499.42 236.57 L 481.55 218.7 A 17.87 17.87 0 0 0 499.42 236.57" fill="#db6e95"/><g transform="translate(499.43,218.7) scale(0.8935000000000001) rotate(0)"><path d="M10 0H20L0 20V10L10 0Z" fill="#d7a0b4"/><path d="M20 10V20H10L20 10Z" fill="#d7a0b4"/></g><rect x="538.3314285714285" y="222.90285714285713" width="27.337142857142855" height="27.337142857142855" fill="#d3d3d3"/><circle cx="558.835" cy="229.735" r="6.835" fill="#d5cbce"/><rect x="21.02857142857143" y="283.88571428571424" width="10.514285714285712" height="10.514285714285712" fill="#d3d3d3"/><path d="M 21.03 283.89 A 5.26 5.26 0 0 1  26.29 289.15 L 21.03 283.89 A 5.26 5.26 0 0 0 26.29 289.15" fill="#f45e81"/><rect x="374.6089795918367" y="269.46612244897955" width="39.3534693877551" height="39.3534693877551" fill="#d3d3d3"/><g transform="translate(394.29,269.47) scale(0.984) rotate(0)"><path d="M10 0H20L0 20V10L10 0Z" fill="#d893ab"/><path d="M20 10V20H10L20 10Z" fill="#d893ab"/></g><path d="M 394.29 289.14 A 19.68 19.68 0 0 1  413.97 308.82 L 394.29 289.14 A 19.68 19.68 0 0 0 413.97 308.82" fill="#d983a1"/><rect x="485.5196734693877" y="275.23395918367345" width="27.81779591836734" height="27.81779591836734" fill="#d3d3d3"/><rect x="72.15804081632653" y="335.0151836734694" width="13.398204081632649" height="13.398204081632649" fill="#d3d3d3"/><path d="M 78.86 335.02 A 6.7 6.7 0 0 1  85.56 341.71999999999997 L 78.86 335.02 A 6.7 6.7 0 0 0 85.56 341.71999999999997" fill="#e03471"/><path d="M 72.16 341.71 A 6.7 6.7 0 0 1  78.86 348.40999999999997 L 72.16 341.71 A 6.7 6.7 0 0 0 78.86 348.40999999999997" fill="#de4d80"/><rect x="123.28751020408163" y="333.57322448979596" width="16.282122448979592" height="16.282122448979592" fill="#d3d3d3"/><circle cx="135.5" cy="337.64" r="4.07" fill="#f94a73"/><path d="M 123.29 341.71 A 8.14 8.14 0 0 1  131.43 349.84999999999997 L 123.29 341.71 A 8.14 8.14 0 0 0 131.43 349.84999999999997" fill="#e02d6c"/><path d="M 131.43 341.71 A 8.14 8.14 0 0 0 139.57 349.84999999999997 L 139.57 341.71" fill="#f84f77"/><rect x="225.54644897959184" y="330.689306122449" width="22.049959183673465" height="22.049959183673465" fill="#d3d3d3"/><rect x="329.24734693877554" y="329.24734693877554" width="24.9338775510204" height="24.9338775510204" fill="#d3d3d3"/><path d="M 341.71 329.25 A 12.47 12.47 0 0 1  354.18 341.72 L 341.71 329.25 A 12.47 12.47 0 0 0 354.18 341.72" fill="#fc3f6c"/><rect x="489.84555102040815" y="332.1312653061225" width="19.16604081632653" height="19.16604081632653" fill="#d3d3d3"/><circle cx="494.64000000000004" cy="336.92" r="4.79" fill="#f45e82"/><path d="M 499.43 332.13 A 9.58 9.58 0 0 1  509.01 341.71 L 499.43 332.13 A 9.58 9.58 0 0 0 509.01 341.71" fill="#fe3968"/><path d="M 489.85 341.71 A 9.58 9.58 0 0 0 499.43 351.28999999999996 L 499.43 341.71" fill="#dbb5be"/><g transform="translate(499.43,341.71) scale(0.479) rotate(0)"><path d="M10 0H20L0 20V10L10 0Z" fill="#e1a2b1"/><path d="M20 10V20H10L20 10Z" fill="#e1a2b1"/></g></g></svg>